<?xml version="1.0" standalone="no"?>
<!DOCTYPE svg PUBLIC "-//W3C//DTD SVG 20010904//EN"
 "http://www.w3.org/TR/2001/REC-SVG-20010904/DTD/svg10.dtd">
<svg version="1.0" xmlns="http://www.w3.org/2000/svg"
 width="1000.000000pt" height="1250.000000pt" viewBox="0 0 1000.000000 1250.000000"
 preserveAspectRatio="xMidYMid meet">

<g transform="translate(0.000000,1250.000000) scale(0.100000,-0.100000)"
fill="#000000" stroke="none">
<path d="M4900 12253 c-711 -27 -1188 -281 -1478 -790 -193 -338 -324 -851
-387 -1518 l-7 -71 128 -61 c361 -171 766 -281 1254 -340 183 -22 778 -25 965
-5 397 43 754 126 1075 249 149 57 360 157 464 220 l58 36 -6 61 c-29 257 -91
606 -147 826 -215 836 -639 1252 -1389 1365 -88 13 -434 38 -450 33 -3 -1 -39
-3 -80 -5z m191 -1863 c157 -30 291 -156 347 -325 38 -116 38 -113 -11 -135
-87 -39 -216 -54 -457 -54 -224 0 -337 11 -407 39 l-32 13 14 60 c68 292 284
451 546 402z"/>
<path d="M6850 11307 c0 -3 14 -43 31 -89 86 -234 164 -571 219 -952 16 -115
32 -211 34 -214 9 -9 259 164 335 232 197 175 293 336 295 496 1 66 -3 84 -31
140 -63 127 -203 228 -415 298 -140 47 -468 109 -468 89z"/>
<path d="M6829 9705 l-66 -34 5 -195 5 -196 -39 0 c-22 0 -420 -36 -885 -79
l-847 -78 -843 78 c-464 43 -861 79 -882 79 l-38 0 2 157 1 157 -74 32 -73 33
-6 -67 c-11 -110 -10 -389 1 -512 30 -326 126 -710 255 -1011 19 -44 35 -82
35 -84 0 -2 -33 -25 -72 -51 -181 -116 -359 -283 -451 -421 -123 -184 -197
-421 -197 -627 0 -307 279 -665 815 -1046 336 -238 825 -513 1298 -728 150
-69 161 -72 232 -72 69 0 83 4 212 62 202 90 593 290 788 402 892 514 1345
980 1345 1387 0 226 -86 477 -229 666 -87 116 -242 259 -375 348 -64 43 -116
78 -116 80 0 1 20 49 44 107 132 315 217 657 247 998 17 191 3 651 -20 650 -3
-1 -36 -16 -72 -35z m-360 -612 c0 -5 -165 -233 -367 -508 -254 -346 -374
-501 -388 -503 -26 -4 -134 36 -134 50 0 7 653 908 686 946 3 4 127 18 177 21
15 0 27 -2 26 -6z m-356 -36 c-4 -8 -147 -203 -317 -435 l-310 -422 -29 27
c-48 46 -120 162 -110 176 6 7 112 153 238 325 129 177 235 312 244 313 9 0
70 6 136 13 164 18 157 18 148 3z m-1702 -38 c57 -5 105 -12 107 -14 2 -2
-144 -204 -324 -450 -373 -510 -317 -462 -462 -395 -63 30 -81 43 -75 53 4 8
140 195 302 415 263 359 297 402 322 402 15 0 73 -5 130 -11z m377 -35 c23 -3
42 -7 42 -10 0 -2 -149 -208 -331 -457 -306 -418 -333 -452 -360 -451 -84 1
-125 5 -138 13 -10 6 69 120 320 464 l334 456 45 -5 c25 -3 64 -7 88 -10z
m288 -499 c31 -23 71 -81 173 -243 90 -145 219 -250 365 -299 75 -26 93 -28
246 -28 141 0 178 4 255 24 125 32 251 84 329 136 36 24 66 38 66 32 -1 -21
-174 -348 -240 -455 -364 -583 -901 -1013 -1264 -1012 -372 1 -902 428 -1272
1024 -69 111 -200 357 -224 421 l-10 27 32 -21 c170 -112 406 -181 617 -181
135 0 226 20 326 69 132 66 218 155 325 335 85 144 157 212 214 201 16 -3 44
-16 62 -30z m-830 -1658 c98 -83 275 -199 374 -246 151 -70 247 -94 385 -94
101 0 134 4 210 27 168 50 361 158 531 297 l74 60 0 -200 0 -201 191 0 c124 0
188 -3 184 -10 -3 -5 -271 -210 -596 -455 l-589 -446 -590 446 c-324 245 -592
450 -595 455 -4 6 52 10 154 10 l161 0 0 221 c0 254 -13 237 106 136z"/>
<path d="M2359 7114 c-573 -349 -949 -635 -1042 -794 -173 -297 -614 -1637
-842 -2563 -140 -567 -195 -927 -161 -1070 30 -127 122 -295 254 -461 130
-165 398 -419 607 -577 150 -113 442 -306 450 -297 5 5 -152 2484 -170 2678
-22 253 -30 513 -16 585 28 152 133 286 276 355 154 74 74 70 1522 70 l1298 0
-250 129 c-627 321 -1049 605 -1366 921 -243 242 -357 421 -405 636 -20 93
-15 321 11 423 8 35 14 65 12 67 -2 2 -82 -44 -178 -102z"/>
<path d="M7472 7208 c4 -8 14 -61 23 -118 26 -150 17 -337 -19 -445 -64 -187
-175 -347 -390 -560 -317 -315 -780 -624 -1414 -946 l-196 -99 1315 0 c1430 0
1390 1 1507 -56 74 -36 172 -131 209 -201 72 -136 83 -248 58 -578 -26 -343
-181 -2855 -176 -2855 11 0 217 133 327 211 430 305 762 651 909 944 75 149
89 211 81 348 -22 371 -232 1233 -526 2162 -168 531 -363 1061 -462 1260 -96
191 -433 456 -1068 838 -91 54 -169 102 -174 105 -5 3 -7 -2 -4 -10z"/>
<path d="M1944 4798 c-126 -14 -207 -79 -246 -198 -17 -53 -20 -90 -20 -195 0
-71 5 -164 11 -205 6 -41 46 -651 90 -1355 96 -1522 94 -1501 121 -1590 18
-58 31 -79 73 -120 66 -65 105 -76 287 -85 80 -3 1385 -4 2900 -1 l2755 6 53
24 c87 39 142 124 166 256 8 44 50 670 106 1610 28 457 59 936 71 1065 28 316
30 538 6 606 -17 51 -69 110 -117 134 -87 45 -52 44 -1370 47 -3007 7 -4829 8
-4886 1z m3287 -1437 c178 -46 304 -145 324 -252 23 -123 -112 -253 -322 -311
-112 -31 -354 -31 -464 0 -202 55 -319 159 -319 282 0 139 145 250 384 296 99
19 298 12 397 -15z"/>
<path d="M2111 794 c-151 -40 -223 -120 -238 -264 -15 -148 81 -237 287 -269
56 -9 793 -11 2915 -9 l2840 3 52 24 c96 43 163 145 163 246 0 101 -75 212
-172 256 l-53 24 -2870 2 c-2485 2 -2877 0 -2924 -13z"/>
</g>
</svg>
