<?xml version="1.0" standalone="no"?>
<!DOCTYPE svg PUBLIC "-//W3C//DTD SVG 20010904//EN"
 "http://www.w3.org/TR/2001/REC-SVG-20010904/DTD/svg10.dtd">
<svg version="1.0" xmlns="http://www.w3.org/2000/svg"
 width="2300.000000pt" height="2300.000000pt" viewBox="0 0 2300.000000 2300.000000"
 preserveAspectRatio="xMidYMid meet">

<g transform="translate(0.000000,2300.000000) scale(0.100000,-0.100000)"
fill="#000000" stroke="none">
<path d="M11320 22540 c-412 -43 -686 -140 -1180 -418 -74 -41 -136 -79 -138
-84 -2 -4 -9 -8 -16 -8 -7 0 -37 -17 -67 -37 -30 -21 -71 -47 -91 -58 -21 -11
-38 -23 -38 -27 0 -5 -5 -8 -11 -8 -13 0 -324 -204 -333 -219 -4 -6 -16 -11
-26 -11 -10 0 -20 -4 -22 -8 -3 -7 -51 -45 -124 -97 -15 -11 -47 -35 -71 -52
-24 -18 -45 -33 -48 -33 -5 0 -45 -33 -71 -57 -7 -7 -15 -13 -19 -13 -4 0 -12
-6 -19 -12 -7 -7 -30 -27 -52 -44 -208 -166 -238 -191 -396 -327 -197 -169
-374 -333 -600 -556 -108 -107 -201 -197 -206 -200 -5 -3 -13 -14 -18 -23 -5
-9 -48 -57 -96 -107 -49 -49 -88 -92 -88 -96 0 -4 -20 -27 -44 -53 -24 -26
-84 -94 -132 -152 -48 -58 -90 -107 -93 -110 -27 -22 -406 -516 -466 -607 -15
-24 -31 -43 -35 -43 -4 0 -15 -16 -26 -35 -10 -19 -22 -35 -26 -35 -5 0 -8 -5
-8 -11 0 -6 -24 -45 -53 -87 -29 -42 -88 -135 -132 -207 -43 -71 -98 -160
-122 -198 -24 -37 -43 -70 -43 -73 0 -4 -15 -32 -34 -63 -45 -73 -149 -271
-232 -441 -37 -74 -70 -136 -75 -138 -10 -4 -129 -275 -139 -316 -4 -17 -21
-67 -37 -111 -122 -328 -196 -556 -244 -755 -13 -52 -27 -97 -30 -100 -9 -6
-70 -301 -64 -309 2 -4 -3 -49 -11 -101 -44 -298 -68 -641 -59 -870 11 -297
38 -515 83 -671 32 -109 136 -428 151 -464 32 -73 51 -126 51 -139 0 -18 112
-278 135 -312 8 -13 52 -96 98 -186 94 -182 213 -392 291 -513 119 -182 148
-226 160 -238 6 -6 20 -25 30 -42 24 -37 206 -281 235 -314 12 -14 20 -31 19
-39 -2 -9 -42 -28 -98 -47 -170 -57 -214 -73 -285 -106 -38 -18 -74 -32 -79
-30 -5 1 -16 -4 -25 -12 -9 -7 -43 -26 -76 -40 -33 -15 -67 -32 -75 -37 -8 -5
-42 -23 -75 -41 -33 -17 -72 -40 -87 -50 -14 -11 -29 -19 -32 -19 -4 0 -31
-18 -61 -40 -30 -22 -58 -40 -62 -40 -5 0 -24 -13 -43 -30 -19 -16 -39 -29
-44 -30 -8 0 -201 -151 -276 -215 -86 -74 -293 -289 -370 -385 -46 -58 -87
-107 -90 -110 -13 -12 -90 -121 -128 -180 -23 -36 -54 -83 -69 -105 -15 -22
-28 -42 -28 -45 0 -3 -5 -12 -10 -20 -18 -28 -54 -95 -61 -112 -3 -10 -10 -18
-15 -18 -5 0 -9 -5 -9 -11 0 -5 -25 -61 -55 -124 -30 -62 -57 -125 -61 -139
-3 -14 -10 -26 -14 -26 -4 0 -10 -10 -13 -22 -3 -13 -25 -81 -50 -153 -54
-153 -98 -319 -133 -500 -14 -71 -33 -168 -43 -215 -11 -47 -31 -143 -45 -215
-15 -71 -34 -152 -42 -180 -8 -27 -64 -291 -124 -585 -60 -294 -181 -888 -270
-1320 -88 -432 -165 -807 -170 -835 -42 -217 -60 -579 -41 -810 68 -816 395
-1531 956 -2090 201 -200 408 -362 645 -503 l94 -57 -53 -7 c-84 -10 -139 -62
-148 -140 -6 -53 31 -199 83 -332 46 -116 128 -262 206 -368 61 -83 214 -242
298 -311 l45 -37 -1560 3 c-1603 2 -1688 0 -2055 -38 -188 -20 -467 -65 -484
-79 -24 -17 -27 -62 -7 -80 32 -29 399 -81 746 -106 289 -20 905 -32 1390 -25
270 4 4079 6 8465 4 8785 -3 8436 -3 8640 11 235 17 600 81 637 111 19 16 16
63 -4 82 -29 25 -269 75 -508 104 -128 16 -275 17 -1740 15 l-1600 -3 40 33
c79 64 228 214 280 283 132 173 230 366 285 562 37 130 38 188 8 233 -45 65
-68 74 -196 80 l-116 5 53 29 c91 49 311 199 421 286 214 170 480 453 632 670
151 217 277 450 366 675 68 174 86 229 132 408 74 288 102 512 103 822 0 364
22 237 -413 2360 -116 567 -215 1039 -220 1050 -4 11 -13 45 -19 75 -6 30 -26
132 -46 225 -19 94 -46 226 -60 295 -14 69 -29 141 -34 160 -35 131 -79 268
-126 387 -43 108 -188 400 -244 491 -28 46 -51 88 -51 93 0 5 -4 9 -10 9 -5 0
-10 4 -10 10 0 13 -151 225 -195 274 -6 6 -26 31 -45 56 -40 50 -55 67 -184
200 -51 52 -125 124 -166 160 -40 36 -78 70 -84 76 -21 20 -236 184 -258 196
-12 7 -30 20 -40 28 -24 21 -285 172 -398 231 -54 28 -150 67 -150 61 0 -4 -4
-2 -8 3 -16 23 -357 146 -470 170 -18 4 -36 13 -39 21 -3 7 17 40 43 73 27 33
76 97 109 143 33 46 63 84 67 86 5 2 8 10 8 17 0 7 4 15 8 17 8 3 163 231 209
308 169 280 267 464 408 765 121 259 305 797 335 980 21 126 40 312 45 435 7
199 -12 567 -42 795 -14 110 -27 221 -29 247 -3 55 -51 287 -62 302 -5 6 -14
36 -21 66 -44 186 -158 547 -235 744 -24 61 -49 130 -55 153 -14 53 -128 315
-140 322 -5 3 -52 94 -106 201 -53 107 -105 209 -114 225 -10 17 -32 55 -48
85 -28 51 -65 113 -223 380 -57 96 -123 200 -143 225 -4 6 -29 43 -54 83 -25
39 -50 72 -55 72 -5 0 -6 5 -3 10 3 6 2 10 -3 10 -5 0 -29 28 -53 63 -84 121
-340 458 -369 487 -11 11 -156 185 -175 210 -20 26 -133 156 -167 192 -10 10
-18 21 -18 24 0 4 -8 14 -17 23 -10 9 -43 43 -72 76 -73 80 -201 215 -204 215
-1 0 -70 66 -152 148 -83 81 -175 169 -205 196 -30 28 -87 79 -126 115 -127
118 -148 136 -249 221 -55 46 -102 86 -105 90 -4 5 -65 54 -365 295 -34 28
-104 79 -155 115 -51 36 -107 77 -125 93 -18 15 -40 27 -48 27 -9 0 -19 5 -22
10 -3 6 -61 46 -128 90 -67 44 -127 84 -133 90 -7 5 -27 17 -46 27 -18 10 -47
28 -65 41 -17 12 -36 22 -41 22 -6 0 -12 3 -14 8 -4 9 -107 72 -119 72 -5 0
-9 5 -9 10 0 6 -4 10 -10 10 -5 0 -43 20 -83 45 -41 25 -77 45 -81 45 -4 0
-25 11 -47 25 -159 101 -454 232 -649 288 -283 83 -616 115 -890 87z m555
-340 c123 -20 269 -57 340 -85 l40 -15 -40 4 c-347 42 -615 29 -905 -44 -230
-58 -395 -128 -709 -304 -648 -362 -1339 -871 -1905 -1404 -55 -52 -118 -105
-140 -119 -57 -35 -94 -71 -126 -120 -23 -36 -87 -106 -375 -410 l-50 -53 -75
14 c-41 7 -106 16 -144 19 -37 4 -70 8 -72 10 -2 1 47 59 108 127 765 857
1719 1621 2648 2120 317 170 588 254 910 284 101 9 379 -4 495 -24z m265
-1741 c813 -52 1631 -286 2265 -649 69 -39 125 -73 125 -75 0 -1 -64 22 -142
51 -552 210 -1268 376 -1893 439 -195 19 -446 35 -560 35 l-91 0 -35 -46 c-48
-66 -129 -120 -223 -151 -111 -35 -283 -38 -399 -5 -88 25 -179 68 -225 107
l-31 26 -138 -31 c-351 -77 -628 -189 -883 -358 -85 -56 -149 -110 -247 -207
-135 -134 -167 -155 -239 -155 -37 0 -74 10 -74 20 0 17 116 159 199 243 251
257 578 449 990 581 285 92 654 158 991 179 133 8 459 6 610 -4z m-3343 -505
c29 -24 43 -42 39 -53 -2 -9 -12 -36 -22 -61 -22 -58 -22 -211 0 -303 9 -38
34 -116 56 -175 30 -79 39 -114 34 -139 -3 -18 -9 -33 -13 -33 -9 0 -111 168
-155 258 -60 119 -98 246 -104 343 -6 104 1 148 30 184 18 23 27 26 55 22 19
-4 55 -23 80 -43z m-977 -544 c12 -8 11 -10 -6 -10 -38 0 -143 -60 -179 -103
-38 -44 -65 -118 -65 -177 0 -32 16 -103 34 -155 17 -46 -87 86 -121 154 -30
59 -37 85 -38 132 0 51 4 62 30 90 30 32 75 56 130 69 44 12 198 11 215 0z
m-596 -374 c3 -14 33 -65 66 -115 l61 -90 -80 -115 c-651 -929 -1079 -1919
-1235 -2851 -74 -445 -86 -971 -31 -1339 33 -219 222 -763 372 -1071 13 -27
17 -41 8 -30 -29 36 -224 439 -290 599 -141 340 -246 687 -267 881 -20 183
-17 722 5 905 127 1051 545 2074 1270 3108 55 78 103 142 107 142 4 0 11 -11
14 -24z m1224 -839 c4 -66 -16 -98 -129 -205 -273 -258 -452 -609 -544 -1067
-71 -350 -74 -857 -9 -1305 41 -285 139 -684 238 -978 31 -90 56 -169 56 -176
0 -8 -8 -24 -18 -36 l-18 -22 -31 73 c-55 130 -160 429 -207 586 -112 377
-187 765 -217 1120 -15 187 -7 611 16 753 87 556 292 940 633 1184 72 52 204
127 217 123 5 -2 11 -24 13 -50z m2077 -1696 c182 -121 217 -142 440 -263 444
-241 960 -414 1460 -488 247 -37 359 -44 660 -44 430 -1 723 33 1161 132 l41
9 7 -96 c34 -472 149 -989 293 -1316 78 -180 213 -368 322 -451 l52 -39 -5
-340 c-4 -362 -15 -485 -62 -715 -146 -710 -554 -1362 -1120 -1788 -531 -399
-1188 -652 -1879 -723 -147 -15 -541 -15 -690 0 -588 59 -1110 233 -1605 532
-241 147 -410 280 -608 483 -182 187 -318 363 -432 561 -202 350 -328 704
-392 1105 -19 119 -22 186 -25 580 l-5 446 113 174 c491 765 632 1172 752
2177 17 150 34 273 37 273 3 0 26 -28 50 -62 25 -35 95 -113 155 -173 270
-271 596 -415 1032 -455 66 -6 134 -8 150 -4 68 17 103 64 103 137 0 39 -7 54
-53 113 -106 136 -202 300 -241 412 l-14 39 86 -64 c48 -36 146 -104 217 -152z
m-3023 -1602 c29 -6 56 -17 60 -23 4 -6 26 -67 49 -136 42 -127 185 -489 233
-590 l26 -55 0 -365 c1 -330 6 -452 26 -634 l7 -59 -47 6 c-261 36 -590 438
-744 907 -145 441 -129 764 44 897 77 58 217 79 346 52z m8325 -4 c179 -53
263 -244 233 -531 -22 -217 -86 -433 -190 -649 -102 -209 -191 -339 -324 -471
-95 -94 -123 -117 -196 -152 -47 -22 -100 -44 -119 -48 l-34 -6 7 68 c20 186
26 324 26 596 l0 296 69 109 c118 185 247 459 327 690 l39 113 56 0 c30 0 78
-7 106 -15z m-8754 -2985 c-5 -4 -55 -24 -113 -45 -308 -112 -637 -298 -906
-512 -136 -109 -385 -356 -490 -488 -261 -326 -452 -680 -577 -1070 -46 -145
-66 -226 -148 -625 -37 -184 -100 -488 -139 -675 -39 -187 -109 -524 -155
-750 -46 -225 -134 -653 -195 -950 -203 -987 -194 -929 -194 -1295 0 -287 8
-380 55 -620 86 -434 283 -876 556 -1245 l74 -100 -109 110 c-469 476 -759
1112 -823 1808 -15 161 -7 492 15 645 18 117 32 189 361 1792 108 525 234
1141 281 1369 103 506 111 542 167 711 152 461 397 859 737 1201 169 170 223
217 377 332 284 210 629 380 978 483 l150 44 53 -57 c29 -31 49 -60 45 -63z
m10202 -2106 c289 -57 531 -281 625 -579 44 -139 42 -187 -74 -1500 -58 -660
-176 -1996 -261 -2970 -85 -973 -160 -1798 -166 -1833 -33 -181 -167 -333
-353 -401 l-71 -26 -5310 0 c-5179 0 -5311 0 -5365 19 -91 31 -150 65 -208
120 -105 98 -155 201 -172 353 -5 49 -37 401 -70 783 -33 382 -62 718 -65 745
-7 67 -35 390 -90 1020 -25 286 -47 545 -50 575 -3 30 -9 105 -15 165 -5 61
-12 137 -15 170 -17 188 -81 923 -115 1320 -22 253 -43 483 -45 510 -27 272
-57 658 -57 731 1 158 48 310 138 445 57 86 183 205 272 259 91 53 234 100
337 108 44 4 2548 6 5565 5 4978 -2 5492 -4 5565 -19z m-11419 -7402 c133
-127 303 -209 484 -232 61 -8 1611 -10 5390 -8 l5305 3 73 23 c161 50 280 120
389 229 l64 63 159 -2 159 -3 -43 -91 c-199 -419 -597 -698 -1061 -744 -79 -8
-1551 -10 -5195 -8 -4859 3 -5088 4 -5160 22 -104 25 -210 61 -299 102 -176
81 -379 247 -498 409 -48 64 -138 224 -162 288 l-11 27 163 0 162 0 81 -78z"/>
<path d="M9755 14395 c-156 -29 -292 -102 -397 -213 -58 -62 -130 -184 -116
-197 3 -3 58 12 121 34 212 73 293 86 532 85 240 0 314 -12 549 -88 75 -24
136 -41 136 -39 0 3 -15 35 -32 72 -39 80 -145 190 -234 244 -165 100 -370
137 -559 102z"/>
<path d="M13105 14396 c-164 -32 -282 -94 -395 -206 -66 -66 -140 -176 -140
-208 0 -6 39 3 88 20 251 85 426 113 665 105 181 -6 293 -28 476 -92 57 -20
106 -33 109 -30 4 3 -9 36 -28 73 -73 144 -239 271 -420 322 -97 27 -260 34
-355 16z"/>
<path d="M9920 13754 c-104 -38 -202 -134 -261 -257 -56 -117 -72 -204 -66
-352 9 -192 58 -315 172 -431 98 -99 143 -119 270 -119 88 0 107 3 159 27 119
56 227 202 272 368 25 90 25 291 0 380 -46 168 -152 311 -272 367 -74 35 -203
42 -274 17z m283 -294 c72 -63 76 -212 7 -282 -40 -40 -79 -38 -118 6 -67 77
-56 237 20 290 32 23 53 20 91 -14z"/>
<path d="M13008 13747 c-136 -58 -233 -178 -289 -357 -31 -98 -34 -299 -6
-400 46 -167 153 -311 273 -368 51 -23 71 -27 154 -27 88 0 101 3 162 33 170
84 288 309 288 552 0 239 -114 460 -282 550 -56 30 -73 34 -153 37 -77 3 -98
0 -147 -20z m71 -280 c27 -23 51 -91 51 -149 0 -67 -12 -103 -48 -140 -75 -80
-172 20 -159 163 10 117 90 181 156 126z"/>
<path d="M10540 11945 c0 -15 57 -116 95 -170 102 -143 262 -255 437 -306 103
-29 324 -38 430 -16 161 34 354 125 458 218 40 36 42 38 13 25 -123 -60 -360
-99 -613 -100 -175 0 -190 1 -274 27 -159 49 -337 150 -482 273 -35 30 -64 52
-64 49z"/>
<path d="M11386 7714 c-694 -108 -1253 -649 -1395 -1351 -40 -194 -44 -457
-11 -647 64 -365 257 -723 528 -978 l79 -74 6 -124 c3 -69 13 -148 21 -175 33
-109 141 -222 253 -266 76 -30 213 -33 290 -6 52 18 53 18 110 -4 46 -18 78
-23 158 -23 87 -1 107 3 155 25 l55 25 63 -29 c87 -41 208 -48 301 -18 l64 20
76 -26 c66 -22 88 -25 164 -20 75 4 99 10 161 41 89 43 156 112 197 201 27 56
32 81 40 197 9 133 9 133 41 162 18 16 56 49 83 73 199 177 379 461 469 741
58 180 79 317 79 522 0 436 -137 815 -417 1148 -264 314 -645 526 -1048 586
-130 20 -398 20 -522 0z m517 -270 c521 -90 961 -475 1131 -988 55 -166 70
-265 70 -471 0 -159 -3 -206 -22 -292 -56 -258 -173 -489 -349 -690 -46 -53
-156 -152 -256 -230 -30 -23 -29 -18 -42 -252 -3 -57 -12 -116 -20 -130 -60
-117 -245 -108 -285 14 -6 17 -9 67 -8 112 3 88 -8 113 -47 113 -35 0 -42 -17
-50 -120 -4 -52 -13 -107 -21 -121 -30 -58 -124 -88 -195 -61 -36 14 -89 78
-90 110 -1 15 -1 54 0 88 1 48 -2 66 -19 87 -26 32 -67 36 -101 8 -21 -17 -24
-28 -25 -104 -2 -100 -19 -139 -74 -169 -45 -25 -129 -20 -168 9 -50 37 -65
76 -64 166 2 91 -13 127 -51 127 -39 0 -47 -18 -47 -112 0 -95 -10 -126 -53
-167 -27 -25 -96 -38 -141 -27 -37 9 -93 62 -105 99 -5 18 -12 103 -14 189
l-5 157 -44 37 c-118 103 -268 266 -331 360 -114 172 -197 377 -234 577 -23
127 -23 390 0 512 89 461 370 841 773 1043 268 135 582 179 887 126z"/>
<path d="M12126 6279 c-113 -27 -224 -121 -279 -237 -28 -60 -32 -77 -32 -157
0 -107 19 -169 75 -248 45 -62 121 -117 198 -142 81 -27 219 -17 297 20 281
135 320 523 69 701 -88 63 -220 88 -328 63z"/>
<path d="M11006 6269 c-109 -26 -215 -114 -264 -219 -23 -48 -26 -69 -26 -160
-1 -98 1 -110 31 -172 44 -94 109 -160 202 -206 72 -36 79 -37 181 -37 96 0
110 3 165 29 33 17 81 52 108 78 27 27 60 74 75 106 24 51 27 68 27 172 0 106
-2 120 -28 172 -88 180 -287 280 -471 237z"/>
</g>
</svg>
